<svg width="44" height="44" viewBox="0 0 44 44" fill="none" xmlns="http://www.w3.org/2000/svg">
<g clip-path="url(#clip0_92_143)">
<path fill-rule="evenodd" clip-rule="evenodd" d="M22 44C34.1502 44 44 34.1502 44 22C44 9.84984 34.1502 0 22 0C9.84984 0 0 9.84984 0 22C0 34.1502 9.84984 44 22 44ZM24.4178 11.0062C23.7336 11.007 23.0481 11.0079 22.3604 11.0185L22.3608 11.0194C22.3432 13.3822 22.3441 15.7458 22.3454 18.1122C22.3458 19.4352 22.3467 20.7588 22.3436 22.0836C22.341 22.528 22.3414 22.972 22.3419 23.4155C22.3428 24.6088 22.3441 25.8007 22.2785 26.9962C22.2688 27.328 22.1025 27.6197 21.941 27.9026L21.9023 27.9704C21.369 28.8402 20.3878 29.4342 19.364 29.4452C17.8196 29.5816 16.3733 28.3175 16.1555 26.8132C16.1537 26.7397 16.1511 26.6653 16.1484 26.591C16.1335 26.1668 16.1181 25.7338 16.2796 25.3387C16.5092 24.6866 16.9501 24.1107 17.5305 23.7345C18.3251 23.1823 19.3882 23.1 20.2981 23.3944C20.2981 22.8144 20.3078 22.2345 20.3174 21.655C20.3306 20.8776 20.3438 20.1001 20.3333 19.3217C18.3423 18.9495 16.2158 19.5791 14.6978 20.9013C13.3584 22.0365 12.4956 23.705 12.3306 25.4492C12.314 25.9038 12.3177 26.3589 12.3416 26.8132C12.5312 28.9586 13.834 30.9571 15.6856 32.0492C16.8032 32.7074 18.1126 33.0651 19.4238 32.9903C21.5613 32.9542 23.6425 31.8085 24.8415 30.0502C25.5869 28.9942 26.0097 27.7187 26.0814 26.4374C26.0999 24.677 26.099 22.913 26.0973 21.1473C26.0973 20.2374 26.0964 19.3266 26.0986 18.4158C26.5747 18.7273 27.0618 19.0318 27.584 19.2685C28.7839 19.8374 30.1123 20.1128 31.434 20.156V16.4644C30.0234 16.3073 28.5736 15.8418 27.5488 14.8249C26.5214 13.8327 26.0168 12.4032 25.9446 11C25.436 11.0044 24.9273 11.0053 24.4178 11.0062Z" fill="#FF7C3B"/>
</g>
<defs>
<clipPath id="clip0_92_143">
<rect width="44" height="44" fill="white"/>
</clipPath>
</defs>
</svg>
