<svg width="44" height="44" viewBox="0 0 44 44" fill="none" xmlns="http://www.w3.org/2000/svg">
<g clip-path="url(#clip0_92_145)">
<path fill-rule="evenodd" clip-rule="evenodd" d="M22 44C34.1502 44 44 34.1502 44 22C44 9.84975 34.1502 0 22 0C9.84975 0 0 9.84975 0 22C0 34.1502 9.84975 44 22 44ZM30.6955 12.7568C28.4316 10.49 25.4205 9.24119 22.2126 9.24C15.6031 9.24 10.2232 14.6191 10.2208 21.231C10.2201 23.3445 10.7722 25.4076 11.8214 27.2258L10.12 33.44L16.477 31.7726C18.2284 32.7282 20.2007 33.2315 22.2074 33.2323H22.2122C28.8213 33.2323 34.2012 27.8524 34.204 21.241C34.206 18.0363 32.9599 15.0236 30.6955 12.7568ZM27.6798 23.7419C27.3801 23.5918 25.9072 22.8672 25.6322 22.7671C25.3578 22.6671 25.1577 22.6171 24.958 22.9172C24.7584 23.2173 24.1842 23.8919 24.0093 24.092C23.8344 24.292 23.6596 24.3169 23.3603 24.1668C23.3113 24.1423 23.2445 24.1133 23.162 24.0775C22.74 23.8945 21.9078 23.5336 20.9506 22.6795C20.0599 21.8848 19.4585 20.9037 19.2837 20.604C19.1088 20.3039 19.2648 20.1418 19.4149 19.9925C19.5049 19.9029 19.6082 19.777 19.7114 19.6513C19.7629 19.5885 19.8144 19.5258 19.8642 19.4676C19.9912 19.3193 20.0464 19.2067 20.1213 19.0542C20.1347 19.0268 20.1487 18.9981 20.164 18.9678C20.264 18.7678 20.214 18.5929 20.1392 18.4428C20.0892 18.3426 19.8052 17.6513 19.5477 17.0246C19.4196 16.713 19.2981 16.4172 19.2152 16.218C19.0004 15.7023 18.7829 15.7036 18.6082 15.7047C18.585 15.7048 18.5625 15.705 18.541 15.7039C18.3665 15.6951 18.1665 15.6935 17.9668 15.6935C17.7671 15.6935 17.4426 15.7683 17.1677 16.0684C17.15 16.0878 17.1302 16.1089 17.1087 16.1319C16.7965 16.4652 16.119 17.1885 16.119 18.5681C16.119 20.0394 17.1873 21.4609 17.3415 21.6661L17.3426 21.6675C17.3523 21.6806 17.3697 21.7056 17.3947 21.7413C17.7523 22.2544 19.6511 24.9784 22.4612 26.1919C23.1762 26.5008 23.734 26.6849 24.1693 26.8229C24.8872 27.051 25.5402 27.019 26.0568 26.9418C26.6326 26.8558 27.8294 26.2171 28.0791 25.5173C28.3288 24.8175 28.3288 24.2173 28.254 24.0924C28.1936 23.9914 28.052 23.9228 27.8421 23.8214C27.7919 23.7971 27.7376 23.7709 27.6798 23.7419Z" fill="#FF7C3B"/>
</g>
<defs>
<clipPath id="clip0_92_145">
<rect width="44" height="44" fill="white"/>
</clipPath>
</defs>
</svg>
