<svg width="81" height="60" viewBox="0 0 81 60" fill="none" xmlns="http://www.w3.org/2000/svg">
<path fill-rule="evenodd" clip-rule="evenodd" d="M15.4603 0.437446C11.6885 1.24918 7.28306 3.8444 4.6466 6.80788C1.58791 10.2455 -0.00797447 14.2841 2.99626e-05 18.5661C0.0113696 24.8022 2.62615 30.4942 8.27161 36.572L10.2637 38.7168L13.0506 36.0721C14.5831 34.6172 16.742 32.6127 17.8479 31.6175C18.9539 30.6219 20.0705 29.2879 20.329 28.6527C20.984 27.0431 22.0609 25.3846 23.3043 24.0704C23.8856 23.4556 24.3195 22.9164 24.2681 22.8726C24.2171 22.8287 23.4247 22.4113 22.5075 21.945C21.5903 21.4788 20.0144 20.3536 19.0056 19.4442L17.1712 17.7913L19.8393 15.2175C21.3068 13.8023 24.589 10.6636 27.1331 8.24293C32.4257 3.20657 32.3666 3.52301 28.3197 1.89196C23.6411 0.00584277 19.5932 -0.451828 15.4603 0.437446ZM45.02 0.414677C42.0203 0.934053 38.5154 2.26549 36.024 3.83252C35.0201 4.46409 32.3936 6.7112 30.1874 8.82632C27.9812 10.9414 25.0883 13.6957 23.7582 14.947C22.4281 16.1982 21.3402 17.4 21.3402 17.6174C21.3402 17.8352 22.1847 18.5882 23.2166 19.2907C24.9519 20.4727 25.2584 20.5661 27.3022 20.5377C30.4933 20.4935 31.6392 19.9286 34.9354 16.7737C36.5473 15.2311 38.428 13.4545 39.115 12.8256L40.3637 11.6819L44.4476 15.7128L48.5316 19.7434H58.4978H68.4639L68.2585 17.3376C67.8689 12.7771 66.1073 9.12329 62.5924 5.586C58.3056 1.27161 51.5519 -0.715806 45.02 0.414677ZM37.8493 17.4336L35.5327 19.7434H40.1839H44.8352L42.5186 17.4336C41.2445 16.1632 40.194 15.1238 40.1839 15.1238C40.1739 15.1238 39.1234 16.1632 37.8493 17.4336ZM27.6807 30.55C27.6827 31.2307 27.7787 32.352 27.8938 33.0416C28.0672 34.0791 28.2253 34.2787 28.8073 34.1965C29.4173 34.1104 29.5371 33.8108 29.7028 31.9524C29.8082 30.7727 29.8369 29.696 29.7665 29.5601C29.6961 29.4241 29.1975 29.3126 28.6579 29.3126C27.7461 29.3126 27.6774 29.3997 27.6807 30.55ZM30.5209 29.6284C30.4125 29.802 30.4242 30.9156 30.5473 32.1032C30.7487 34.048 30.8444 34.2622 31.5121 34.2622C32.1572 34.2622 32.2806 34.0375 32.4637 32.5298C32.8345 29.4753 32.7959 29.3126 31.6989 29.3126C31.1593 29.3126 30.6293 29.4548 30.5209 29.6284ZM75.9284 29.5601C75.847 29.696 75.8757 30.7727 75.9921 31.9524C76.1765 33.8217 76.2966 34.1104 76.9256 34.1988C77.583 34.2916 77.668 34.1094 77.8788 32.1629C78.0062 30.9869 78.0102 29.8647 77.8878 29.6687C77.6357 29.2651 76.1542 29.1829 75.9284 29.5601ZM78.7089 30.55C78.7109 31.2307 78.807 32.352 78.9221 33.0416C79.0955 34.0791 79.2536 34.2787 79.8356 34.1965C80.4456 34.1104 80.5653 33.8108 80.7311 31.9524C80.8365 30.7727 80.8652 29.696 80.7948 29.5601C80.7244 29.4241 80.2258 29.3126 79.6862 29.3126C78.7743 29.3126 78.7056 29.3997 78.7089 30.55ZM37.0412 31.1568C36.2268 31.8346 36.015 32.2698 36.015 33.265C36.015 35.2712 36.7864 35.9038 39.6697 36.2622C42.1 36.5641 43.0635 36.9693 42.5503 37.4738C42.2354 37.783 38.1978 37.7648 36.9321 37.4487C36.049 37.228 36.015 37.2673 36.015 38.5023C36.015 39.7285 36.0703 39.7945 37.2657 39.9898C40.9457 40.5917 44.463 39.8364 45.046 38.3192C45.5599 36.9822 45.3988 36.2361 44.3786 35.2267C43.6299 34.4862 43.0979 34.2622 42.0857 34.2622C39.0033 34.2622 37.5959 33.335 39.5579 32.5968C40.3567 32.2966 41.1211 32.3378 43.7693 32.8258C44.6264 32.9836 44.6864 32.9199 44.6864 31.8488C44.6864 30.42 44.3949 30.3025 40.8493 30.3025C38.3429 30.3025 37.9657 30.3873 37.0412 31.1568ZM50.7968 30.8348C48.8578 31.7811 48.072 35.133 49.1763 37.748C50.3733 40.5825 56.5654 41.1104 58.8513 38.5733C59.3309 38.041 59.5437 37.2375 59.6367 35.6082C59.7861 32.9898 59.2182 31.5775 57.7047 30.8031C56.3849 30.128 52.2063 30.1471 50.7968 30.8348ZM64.6412 30.8074C63.5259 31.4066 62.8802 33.1693 63.3384 34.3625C63.8134 35.5976 64.9096 36.1424 67.321 36.3413C69.754 36.542 70.4781 36.9736 69.3678 37.5613C68.8518 37.8345 67.9136 37.8721 66.247 37.6863C64.9363 37.5405 63.7136 37.4154 63.5302 37.4088C63.3468 37.4022 63.1967 37.9153 63.1967 38.5485C63.1967 39.5612 63.3174 39.7259 64.1973 39.912C66.0246 40.2987 69.3728 40.208 70.5011 39.7417C72.6106 38.8696 73.2629 37.0366 72.0206 35.4739C71.3522 34.6331 70.976 34.515 67.6158 34.0916C66.3775 33.9355 66.0316 33.7603 66.0316 33.2888C66.0316 32.8654 66.3661 32.6236 67.1542 32.4774C67.7716 32.3629 68.4843 32.3338 68.7384 32.413C68.9922 32.4926 69.838 32.6457 70.6175 32.7536L72.0349 32.9502V31.8267C72.0349 31.1067 71.8455 30.6312 71.5073 30.5028C70.455 30.1032 65.5463 30.321 64.6412 30.8074ZM53.1912 32.5127C51.9388 32.8278 51.3568 33.6405 51.3568 35.0752C51.3568 37.1541 51.9521 37.7269 54.1137 37.7269C56.481 37.7269 57.0266 37.26 57.0266 35.2353C57.0266 33.6702 56.4493 32.6176 55.5855 32.6077C55.369 32.6054 54.8921 32.545 54.5252 32.4741C54.1584 32.4031 53.558 32.4203 53.1912 32.5127ZM16.3387 36.276C12.6053 40.1657 12.4539 40.5412 13.9698 42.1465C15.4466 43.7106 16.7233 43.5615 18.9675 41.5632L20.7639 39.9638L20.2109 38.5152C19.9071 37.7187 19.5489 36.2249 19.4154 35.1954L19.1723 33.3241L16.3387 36.276ZM20.7785 43.2539C18.7387 45.3862 18.5596 46.4104 19.9804 47.8164C21.4829 49.303 22.8337 49.1528 24.6774 47.2941L26.1522 45.8073L25.3304 45.2559C24.8785 44.9526 23.952 44.1366 23.2712 43.443C22.5909 42.7491 21.9822 42.1815 21.9192 42.1815C21.8561 42.1815 21.3428 42.6643 20.7785 43.2539ZM26.8956 48.7928C26.0371 49.7375 25.245 50.8647 25.1353 51.298C24.6854 53.0716 27.3568 55.0692 29.2452 54.3713C30.1024 54.0542 36.015 48.5694 36.015 48.0913C36.015 47.9765 34.7019 47.7917 33.0967 47.6805C31.4918 47.5693 29.7909 47.3878 29.3176 47.2769C28.5872 47.106 28.2197 47.336 26.8956 48.7928ZM42.7864 48.9459C43.4624 49.6349 44.2429 50.1002 44.7201 50.0995C45.7684 50.0979 47.6881 48.9281 47.6881 48.291C47.6881 47.8811 47.1435 47.791 44.6704 47.791H41.6528L42.7864 48.9459ZM38.1828 50.0992C37.816 50.2569 36.1024 51.7015 34.3751 53.3098C31.6739 55.8245 31.2347 56.3822 31.2347 57.2946C31.2347 58.7652 32.461 60 33.9218 60C35.5777 60 36.5623 59.3641 39.4335 56.4393C42.1083 53.7147 42.4746 52.8805 41.6581 51.3712C41.3739 50.8459 39.3915 49.6923 38.9439 49.7917C38.8922 49.8032 38.5497 49.9418 38.1828 50.0992Z" fill="#FF7C3B"/>
</svg>
